<?xml version="1.0" encoding="utf-8"?>
<!-- Generator: Adobe Illustrator 21.0.0, SVG Export Plug-In . SVG Version: 6.00 Build 0)  -->
<svg version="1.1" id="Layer_1" xmlns="http://www.w3.org/2000/svg" xmlns:xlink="http://www.w3.org/1999/xlink" x="0px" y="0px"
	 viewBox="0 0 290 47" style="enable-background:new 0 0 290 47;" xml:space="preserve">
<style type="text/css">
	.st0{fill:#FFFFFF;}
</style>
<title>rockcontent-logo</title>
<g id="_Group_">
	<g id="_Group_2">
		<path id="_Compound_Path_" class="st0" d="M50.3,21.1V29h-2.5V18.5h2.3v0.9c1-0.8,2.3-1.2,3.6-1.1v2.3
			C52.6,20.4,51.4,20.7,50.3,21.1z"/>
		<path id="_Compound_Path_2" class="st0" d="M59.5,29.2c-3.1,0-4.7-1.6-4.7-4.9v-1.3c0-3.3,1.7-4.9,4.7-4.9s4.7,1.6,4.7,4.9v1.3
			C64.2,27.7,62.5,29.2,59.5,29.2z M61.8,23.1c0-2-0.7-2.8-2.3-2.8s-2.3,0.8-2.3,2.8v1.3c0,2,0.7,2.8,2.3,2.8s2.3-0.8,2.3-2.8V23.1z
			"/>
		<path id="_Compound_Path_3" class="st0" d="M70.6,29.2c-3,0-4.4-1.7-4.4-4.9V23c0-3.2,1.4-4.9,4.4-4.9c1.1,0,2.2,0.1,3.2,0.4v1.9
			c-1.3-0.1-2.2-0.2-2.8-0.2c-1.5,0-2.4,0.5-2.4,2.8v1.3c0,2.3,0.9,2.8,2.4,2.8c0.6,0,1.5-0.1,2.8-0.2v1.9
			C72.7,29.1,71.6,29.2,70.6,29.2z"/>
		<path id="_Compound_Path_4" class="st0" d="M82.1,29l-3.7-5v5h-2.4V14.4h2.4v8.7l3.7-4.7h2.8l-4.1,5L85,29H82.1z"/>
		<path id="_Compound_Path_5" class="st0" d="M90.1,29.2c-3,0-4.4-1.7-4.4-4.9V23c0-3.2,1.4-4.9,4.4-4.9c1.1,0,2.2,0.1,3.2,0.4v1.9
			c-1.3-0.1-2.2-0.2-2.8-0.2c-1.5,0-2.4,0.5-2.4,2.8v1.3c0,2.3,0.9,2.8,2.4,2.8c0.6,0,1.5-0.1,2.8-0.2v1.9
			C92.2,29.1,91.2,29.2,90.1,29.2z"/>
		<path id="_Compound_Path_6" class="st0" d="M99.5,29.2c-3.1,0-4.7-1.6-4.7-4.9v-1.3c0-3.3,1.7-4.9,4.7-4.9s4.7,1.6,4.7,4.9v1.3
			C104.2,27.7,102.5,29.2,99.5,29.2z M101.8,23.1c0-2-0.7-2.8-2.3-2.8s-2.3,0.8-2.3,2.8v1.3c0,2,0.7,2.8,2.3,2.8s2.3-0.8,2.3-2.8
			V23.1z"/>
		<path id="_Compound_Path_7" class="st0" d="M113.2,29v-6.7c0-1.5-0.3-2-1.5-2c-0.9,0.1-1.9,0.3-2.7,0.7v8h-2.4V18.5h2.3v0.8
			c1-0.7,2.2-1,3.4-1.1c3,0,3.4,1.7,3.4,4.1V29H113.2z"/>
		<path id="_Compound_Path_8" class="st0" d="M121.9,29.2c-2.1,0-2.9-0.8-2.9-3v-5.8l-2-0.2v-1.8h2v-2.7h2.5v2.7h2.5v2h-2.6v5.8
			c0,1,0.1,1.2,1,1.2c0.5,0,1.3,0,1.6-0.1V29C123.3,29.1,122.6,29.2,121.9,29.2z"/>
		<path id="_Compound_Path_9" class="st0" d="M127.7,24.5v0.2c0,1.5,0.2,2.5,2.8,2.5c1.1,0,2.4-0.1,3.8-0.2v1.9
			c-1.3,0.3-2.6,0.5-3.9,0.5c-3.8,0-5.1-1.5-5.1-5.1v-0.6c0-3.5,1.6-5.2,4.7-5.2c3.5,0,4.7,2.3,4.7,5.5v0.8L127.7,24.5z M132.3,22.7
			c0-1.2-0.2-2.5-2.3-2.5s-2.3,1.3-2.3,2.5v0.2h4.6V22.7z"/>
		<path id="_Compound_Path_10" class="st0" d="M143.7,29v-6.7c0-1.5-0.3-2-1.5-2c-1,0.1-1.9,0.3-2.8,0.7v8H137V18.5h2.4v0.8
			c1-0.7,2.2-1,3.4-1.1c3,0,3.4,1.7,3.4,4.1V29H143.7z"/>
		<path id="_Compound_Path_11" class="st0" d="M152.4,29.2c-2.1,0-2.9-0.8-2.9-3v-5.8l-2-0.2v-1.8h2v-2.7h2.5v2.7h2.6v2H152v5.8
			c0,1,0.1,1.2,1,1.2c0.5,0,1.3,0,1.6-0.1V29C153.9,29.1,153.1,29.2,152.4,29.2z"/>
	</g>
	<g id="_Group_3">
		<rect id="_Path_" x="25.6" y="22.4" class="st0" width="10.1" height="2.1"/>
		<path id="_Path_2" class="st0" d="M35.7,20.3H25.6v-1c0-0.6,0.5-1.1,1.1-1.1h7.8c0.6,0,1.2,0.5,1.2,1.1c0,0,0,0,0,0V20.3z"/>
		<path id="_Path_3" class="st0" d="M35.7,26.7H25.6v1c0,0.6,0.5,1.1,1.1,1.1h7.8c0.6,0,1.2-0.5,1.2-1.1c0,0,0,0,0,0V26.7z"/>
		<path id="_Compound_Path_12" class="st0" d="M33.5,13.5h-5.4c-5.4,0-8.1,3.3-8.1,10s2.7,10,8.1,10h5.4c5.4,0,8.1-3.2,8.1-10
			S38.8,13.5,33.5,13.5z M33,31.4C30.6,31.4,33,31.4,33,31.4h-4.6c0,0,2.4,0,0,0c-5.8,0-5.8-3.5-5.8-7.9s0-7.9,5.8-7.9H33
			c5.8,0,5.8,3.5,5.8,7.9S38.8,31.4,33,31.4z"/>
	</g>
</g>
<g>
	<path class="st0" d="M203.4,28c-1,0.3-2,0.5-3,0.5c-2.5,0.2-4.8-1.6-5-4.2c0-0.3,0-0.5,0-0.8c-0.1-2.7,2.1-5,4.8-5.1
		c0.2,0,0.4,0,0.5,0c0.8,0,1.7,0.1,2.4,0.4l-0.3,1c-0.7-0.3-1.4-0.4-2.2-0.4c-2-0.2-3.8,1.3-3.9,3.3c0,0.2,0,0.5,0,0.7
		c-0.2,2,1.3,3.8,3.3,3.9c0.2,0,0.3,0,0.5,0c0.6,0,1.2-0.1,1.7-0.3v-2.9h-2v-1h3.2V28z"/>
	<path class="st0" d="M206.7,18.6v5.8c0,2.2,1,3.1,2.3,3.1c1.3,0,2.4-1,2.4-3.1v-5.8h1.3v5.7c0,3-1.6,4.2-3.7,4.2
		c-2.1,0-3.5-1.2-3.5-4.2v-5.8H206.7z"/>
	<path class="st0" d="M216.1,18.6v9.8h-1.2v-9.8H216.1z"/>
	<path class="st0" d="M219.9,25.3l-1,3.1h-1.3l3.3-9.8h1.5l3.3,9.8h-1.4l-1-3.1L219.9,25.3z M223.1,24.3l-1-2.8
		c-0.2-0.6-0.4-1.2-0.5-1.8l0,0c-0.1,0.6-0.3,1.2-0.5,1.8l-1,2.8L223.1,24.3z"/>
	<path class="st0" d="M230.3,18.7c0.9-0.1,1.8-0.2,2.7-0.2c1.4-0.1,2.8,0.3,4,1.2c1,0.9,1.5,2.2,1.4,3.5c0.1,1.4-0.4,2.8-1.4,3.8
		c-1.2,1-2.8,1.6-4.4,1.5c-0.8,0-1.5,0-2.3-0.1L230.3,18.7z M231.5,27.4c0.4,0.1,0.9,0.1,1.3,0.1c2.1,0.2,3.9-1.3,4.2-3.3
		c0-0.3,0-0.6,0-0.8c0-2.3-1.3-3.8-4-3.8c-0.5,0-1,0-1.5,0.1L231.5,27.4z"/>
	<path class="st0" d="M245.1,23.8h-3.8v3.5h4.2v1.1H240v-9.8h5.3v1.1h-4v3.1h3.8L245.1,23.8z"/>
	<path class="st0" d="M255.3,23.8h-3.8v3.5h4.2v1.1h-5.5v-9.8h5.3v1.1h-4v3.1h3.8L255.3,23.8z"/>
	<path class="st0" d="M257.2,26.9c0.7,0.4,1.5,0.6,2.3,0.6c1.3,0,2.1-0.7,2.1-1.7s-0.5-1.4-1.8-2c-1.6-0.6-2.6-1.4-2.6-2.8
		c0.1-1.6,1.4-2.8,3-2.7c0.1,0,0.1,0,0.2,0c0.8,0,1.5,0.1,2.2,0.5l-0.4,1c-0.6-0.3-1.2-0.5-1.9-0.5c-1.3,0-1.8,0.8-1.8,1.5
		c0,0.9,0.6,1.4,2,1.9c1.7,0.6,2.5,1.4,2.5,2.9c0,1.4-1.1,2.8-3.4,2.8c-0.9,0-1.7-0.2-2.5-0.6L257.2,26.9z"/>
	<path class="st0" d="M266.5,19.7h-3v-1.1h7.3v1.1h-3v8.7h-1.3L266.5,19.7z"/>
	<path class="st0" d="M273.1,18.6v9.8h-1.2v-9.8H273.1z"/>
	<path class="st0" d="M275.3,18.6h1.2v8.8h4.2v1h-5.5L275.3,18.6z"/>
	<path class="st0" d="M290,23.4c0,3.4-2.1,5.2-4.6,5.2c-2.5,0-4.4-2-4.4-5s1.9-5.2,4.6-5.2S290,20.5,290,23.4z M282.4,23.6
		c0,2.1,1.1,4,3.1,4c2,0,3.1-1.8,3.1-4.1c0-2-1-4-3.1-4S282.4,21.4,282.4,23.6L282.4,23.6z"/>
</g>
<path class="st0" d="M175.3,17v12h-0.8V17H175.3z"/>
</svg>
