<svg id="Logotipo_Rock_Content" data-name="Logotipo Rock Content" xmlns="http://www.w3.org/2000/svg" viewBox="0 0 1100 250"><defs><style>.cls-1{fill:#5f6060;}.cls-2{fill:#7c7d7e;}</style></defs><title>rockcontent-cinza</title><g id="Rock_Content" data-name="Rock Content"><g id="Tipo"><path id="_Compound_Path_" data-name="&lt;Compound Path&gt;" class="cls-1" d="M275.19,107.1v58.56H257V87.53h17.34v6.38c7.36-6.52,16.93-8.32,26.64-8.32v16.79C291.56,102.38,281.15,104.32,275.19,107.1Z"/><path id="_Compound_Path_2" data-name="&lt;Compound Path&gt;" class="cls-1" d="M343.46,167.74c-22.76,0-35.25-11.66-35.25-36.35v-9.58c0-24.56,12.49-36.21,35.25-36.21s35.25,11.65,35.25,36.21v9.58C378.7,156.08,366.21,167.74,343.46,167.74Zm17.07-45.93c0-15-5.14-20.54-17.07-20.54s-17.07,5.55-17.07,20.54v9.58c0,15,5.13,20.67,17.07,20.67s17.07-5.69,17.07-20.67Z"/><path id="_Compound_Path_3" data-name="&lt;Compound Path&gt;" class="cls-1" d="M425.74,167.74c-22.48,0-32.89-12.77-32.89-36.22v-9.85c0-23.87,10.41-36.08,32.89-36.08,11.93,0,20.54,1.8,24.14,2.91v13.88c-9.85-.83-16.65-1.25-21-1.25-11.38,0-17.76,3.61-17.76,20.54v9.85c0,16.79,6.38,20.68,17.76,20.68,4.3,0,11.1-.42,21-1.25v13.87A94.57,94.57,0,0,1,425.74,167.74Z"/><path id="_Compound_Path_4" data-name="&lt;Compound Path&gt;" class="cls-1" d="M511.35,165.65l-27.61-37v37H465.56V57.84h18.18v64.52l27.75-34.83h21L502.19,125l31.08,40.66Z"/><path id="_Compound_Path_5" data-name="&lt;Compound Path&gt;" class="cls-1" d="M570.74,167.74c-22.48,0-32.89-12.77-32.89-36.22v-9.85c0-23.87,10.41-36.08,32.89-36.08,11.93,0,20.54,1.8,24.14,2.91v13.88c-9.85-.83-16.65-1.25-21-1.25-11.38,0-17.76,3.61-17.76,20.54v9.85c0,16.79,6.38,20.68,17.76,20.68,4.3,0,11.1-.42,21-1.25v13.87A94.56,94.56,0,0,1,570.74,167.74Z"/><path id="_Compound_Path_6" data-name="&lt;Compound Path&gt;" class="cls-1" d="M640.67,167.74c-22.75,0-35.24-11.66-35.24-36.35v-9.58c0-24.56,12.49-36.21,35.24-36.21s35.25,11.65,35.25,36.21v9.58C675.91,156.08,663.43,167.74,640.67,167.74Zm17.07-45.93c0-15-5.13-20.54-17.07-20.54s-17.06,5.55-17.06,20.54v9.58c0,15,5.13,20.67,17.06,20.67s17.07-5.69,17.07-20.67Z"/><path id="_Compound_Path_7" data-name="&lt;Compound Path&gt;" class="cls-1" d="M742.79,165.65V116.12c0-11.24-1.94-15.12-11-15.12-5.27,0-12.21,1.94-20.54,5.27v59.39H693.12V87.53H710.6v6.24c8.46-4.86,16.93-8.19,25.67-8.19,22.07,0,25,12.76,25,30.52v49.54Z"/><path id="_Compound_Path_8" data-name="&lt;Compound Path&gt;" class="cls-1" d="M807.45,167.74c-15.4,0-21.51-6.11-21.51-22.48v-43L771.38,101V87.53h14.57V67.69h18.32V87.53h19v14.71h-19V145c0,7.22.55,8.6,7.21,8.6,4,0,9.57-.28,11.8-.55v12.49A66.32,66.32,0,0,1,807.45,167.74Z"/><path id="_Compound_Path_9" data-name="&lt;Compound Path&gt;" class="cls-1" d="M850.61,132.35v1.39c0,11.38,1.67,18.73,20.82,18.73,8.18,0,17.9-.83,28.17-1.8V164.4a125.3,125.3,0,0,1-29,3.33c-28.17,0-38.16-10.82-38.16-38.3v-4.85c0-26.23,11.94-39,35.25-39,26.08,0,35.25,16.93,35.25,40.65v6.11Zm34-13.18c0-9-1.81-18.87-16.93-18.87-14.71,0-16.93,10-16.93,18.87v1.25H884.6Z"/><path id="_Compound_Path_10" data-name="&lt;Compound Path&gt;" class="cls-1" d="M969.52,165.65V116.12c0-11.24-1.94-15.12-11-15.12-5.27,0-12.21,1.94-20.54,5.27v59.39H919.84V87.53h17.49v6.24c8.46-4.86,16.93-8.19,25.67-8.19,22.07,0,25,12.76,25,30.52v49.54Z"/><path id="_Compound_Path_11" data-name="&lt;Compound Path&gt;" class="cls-1" d="M1034.18,167.74c-15.4,0-21.51-6.11-21.51-22.48v-43L998.1,101V87.53h14.57V67.69H1031V87.53h19v14.71h-19V145c0,7.22.55,8.6,7.21,8.6,4,0,9.57-.28,11.8-.55v12.49A66.32,66.32,0,0,1,1034.18,167.74Z"/></g><g id="Ãcone"><rect id="_Path_" data-name="&lt;Path&gt;" class="cls-2" x="91.97" y="117.24" width="74.93" height="15.71"/><path id="_Path_2" data-name="&lt;Path&gt;" class="cls-2" d="M166.9,101.54H92V94.39a8.57,8.57,0,0,1,8.56-8.57h57.81a8.57,8.57,0,0,1,8.56,8.57Z"/><path id="_Path_3" data-name="&lt;Path&gt;" class="cls-2" d="M166.9,148.74H92v7.14a8.57,8.57,0,0,0,8.56,8.57h57.81a8.57,8.57,0,0,0,8.56-8.57Z"/><path id="_Compound_Path_12" data-name="&lt;Compound Path&gt;" class="cls-2" d="M150,50.67H109.93C69.91,50.67,50,75,50,125.09s19.91,74.24,59.93,74.24H150c40,0,59.93-24.19,59.93-74.24S190,50.67,150,50.67Zm-3,133c-18.06,0,0,.07,0,.07H112.82s18.06-.07,0-.07c-43,0-42.91-25.62-42.91-58.54s-.13-58.68,42.91-58.68H147c43,0,42.91,25.76,42.91,58.68S190,183.63,147,183.63Z"/></g></g></svg>