<?xml version="1.0" encoding="utf-8"?>
<!-- Generator: Adobe Illustrator 21.0.0, SVG Export Plug-In . SVG Version: 6.00 Build 0)  -->
<svg version="1.1" id="Logotipo_Rock_Content" xmlns="http://www.w3.org/2000/svg" xmlns:xlink="http://www.w3.org/1999/xlink"
	 x="0px" y="0px" viewBox="0 0 260 250" style="enable-background:new 0 0 260 250;" xml:space="preserve">
<style type="text/css">
	.st0{fill:#4266AD;}
</style>
<g id="Rock_Content">
	<g id="Ãcone">
		<rect id="XMLID_43_" x="92" y="117.2" class="st0" width="74.9" height="15.7"/>
		<path id="XMLID_32_" class="st0" d="M166.9,101.5H92v-7.1c0-4.7,3.8-8.6,8.6-8.6h57.8c4.7,0,8.6,3.8,8.6,8.6V101.5z"/>
		<path id="XMLID_28_" class="st0" d="M166.9,148.7H92v7.1c0,4.7,3.8,8.6,8.6,8.6h57.8c4.7,0,8.6-3.8,8.6-8.6V148.7z"/>
		<path id="XMLID_25_" class="st0" d="M150,50.7H110C69.9,50.7,50,75,50,125.1s19.9,74.2,59.9,74.2H150c40,0,59.9-24.2,59.9-74.2
			S190.1,50.7,150,50.7z M147,183.6C129,183.6,147,183.7,147,183.6l-34.2,0.1c0,0,18.1-0.1,0-0.1c-43,0-42.9-25.6-42.9-58.5
			c0-32.9-0.1-58.7,42.9-58.7H147c43,0,42.9,25.8,42.9,58.7C189.9,158,190.1,183.6,147,183.6z"/>
	</g>
</g>
</svg>
