<svg id="Layer_1" data-name="Layer 1" xmlns="http://www.w3.org/2000/svg" viewBox="0 0 290 46.98"><defs><style>.cls-1{fill:#fff;}</style></defs><title>rockcontent-logo</title><g id="_Group_" data-name="&lt;Group&gt;"><g id="_Group_2" data-name="&lt;Group&gt;"><path id="_Compound_Path_" data-name="&lt;Compound Path&gt;" class="cls-1" d="M50.3,21.08V29H47.85V18.45h2.33v.86a5.22,5.22,0,0,1,3.58-1.12v2.26A9.23,9.23,0,0,0,50.3,21.08Z"/><path id="_Compound_Path_2" data-name="&lt;Compound Path&gt;" class="cls-1" d="M59.48,29.24c-3.06,0-4.74-1.57-4.74-4.89V23.06c0-3.3,1.68-4.87,4.74-4.87s4.74,1.57,4.74,4.87v1.29C64.22,27.67,62.54,29.24,59.48,29.24Zm2.3-6.18c0-2-.69-2.76-2.3-2.76s-2.3.75-2.3,2.76v1.29c0,2,.69,2.78,2.3,2.78s2.3-.77,2.3-2.78Z"/><path id="_Compound_Path_3" data-name="&lt;Compound Path&gt;" class="cls-1" d="M70.55,29.24c-3,0-4.42-1.72-4.42-4.87V23c0-3.21,1.4-4.85,4.42-4.85a11.91,11.91,0,0,1,3.25.39v1.87c-1.33-.11-2.24-.17-2.82-.17-1.53,0-2.39.49-2.39,2.76v1.33c0,2.26.86,2.78,2.39,2.78.58,0,1.49-.06,2.82-.17v1.87A12.72,12.72,0,0,1,70.55,29.24Z"/><path id="_Compound_Path_4" data-name="&lt;Compound Path&gt;" class="cls-1" d="M82.07,29l-3.72-5v5H75.91V14.45h2.45v8.68l3.73-4.69h2.82l-4.07,5L85,29Z"/><path id="_Compound_Path_5" data-name="&lt;Compound Path&gt;" class="cls-1" d="M90.06,29.24c-3,0-4.42-1.72-4.42-4.87V23c0-3.21,1.4-4.85,4.42-4.85a11.91,11.91,0,0,1,3.25.39v1.87c-1.33-.11-2.24-.17-2.82-.17-1.53,0-2.39.49-2.39,2.76v1.33c0,2.26.86,2.78,2.39,2.78.58,0,1.49-.06,2.82-.17v1.87A12.72,12.72,0,0,1,90.06,29.24Z"/><path id="_Compound_Path_6" data-name="&lt;Compound Path&gt;" class="cls-1" d="M99.47,29.24c-3.06,0-4.74-1.57-4.74-4.89V23.06c0-3.3,1.68-4.87,4.74-4.87s4.74,1.57,4.74,4.87v1.29C104.21,27.67,102.53,29.24,99.47,29.24Zm2.3-6.18c0-2-.69-2.76-2.3-2.76s-2.3.75-2.3,2.76v1.29c0,2,.69,2.78,2.3,2.78s2.3-.77,2.3-2.78Z"/><path id="_Compound_Path_7" data-name="&lt;Compound Path&gt;" class="cls-1" d="M113.21,29V22.29c0-1.51-.26-2-1.47-2A8.09,8.09,0,0,0,109,21v8h-2.45V18.45h2.35v.84a7,7,0,0,1,3.45-1.1c3,0,3.36,1.72,3.36,4.11V29Z"/><path id="_Compound_Path_8" data-name="&lt;Compound Path&gt;" class="cls-1" d="M121.91,29.24c-2.07,0-2.89-.82-2.89-3V20.43l-2-.17V18.45h2V15.78h2.46v2.67H124v2h-2.56v5.75c0,1,.07,1.16,1,1.16.54,0,1.29,0,1.59-.07v1.68A8.92,8.92,0,0,1,121.91,29.24Z"/><path id="_Compound_Path_9" data-name="&lt;Compound Path&gt;" class="cls-1" d="M127.72,24.48v.19c0,1.53.22,2.52,2.8,2.52,1.1,0,2.41-.11,3.79-.24v1.85a16.86,16.86,0,0,1-3.9.45c-3.79,0-5.13-1.46-5.13-5.15v-.65c0-3.53,1.61-5.25,4.74-5.25,3.51,0,4.74,2.28,4.74,5.47v.82Zm4.57-1.77c0-1.21-.24-2.54-2.28-2.54s-2.28,1.34-2.28,2.54v.17h4.56Z"/><path id="_Compound_Path_10" data-name="&lt;Compound Path&gt;" class="cls-1" d="M143.71,29V22.29c0-1.51-.26-2-1.47-2a8.09,8.09,0,0,0-2.76.71v8H137V18.45h2.35v.84a7,7,0,0,1,3.45-1.1c3,0,3.36,1.72,3.36,4.11V29Z"/><path id="_Compound_Path_11" data-name="&lt;Compound Path&gt;" class="cls-1" d="M152.41,29.24c-2.07,0-2.89-.82-2.89-3V20.43l-2-.17V18.45h2V15.78H152v2.67h2.56v2H152v5.75c0,1,.07,1.16,1,1.16.54,0,1.29,0,1.59-.07v1.68A8.92,8.92,0,0,1,152.41,29.24Z"/></g><g id="_Group_3" data-name="&lt;Group&gt;"><rect id="_Path_" data-name="&lt;Path&gt;" class="cls-1" x="25.65" y="22.44" width="10.08" height="2.11"/><path id="_Path_2" data-name="&lt;Path&gt;" class="cls-1" d="M35.73,20.33H25.65v-1a1.15,1.15,0,0,1,1.15-1.15h7.78a1.15,1.15,0,0,1,1.15,1.15Z"/><path id="_Path_3" data-name="&lt;Path&gt;" class="cls-1" d="M35.73,26.68H25.65v1A1.15,1.15,0,0,0,26.8,28.8h7.78a1.15,1.15,0,0,0,1.15-1.15Z"/><path id="_Compound_Path_12" data-name="&lt;Compound Path&gt;" class="cls-1" d="M33.46,13.49H28.06c-5.38,0-8.06,3.28-8.06,10s2.68,10,8.06,10h5.39c5.38,0,8.06-3.25,8.06-10S38.84,13.49,33.46,13.49Zm-.41,17.89c-2.43,0,0,0,0,0h-4.6s2.43,0,0,0c-5.79,0-5.77-3.45-5.77-7.88s0-7.89,5.77-7.89h4.6c5.79,0,5.77,3.47,5.77,7.89S38.84,31.38,33.05,31.38Z"/></g></g><path class="cls-1" d="M202,26.65a7.53,7.53,0,0,1-2.48.44A3.8,3.8,0,0,1,195.39,23a4.06,4.06,0,0,1,4.38-4.17,5,5,0,0,1,2,.37l-.25.85a4.19,4.19,0,0,0-1.79-.35A3,3,0,0,0,196.49,23a3,3,0,0,0,3.12,3.26A3.42,3.42,0,0,0,201,26V23.6h-1.64v-.84H202Z"/><path class="cls-1" d="M204.67,18.93v4.79c0,1.81.8,2.58,1.88,2.58s2-.79,2-2.58V18.93h1.06v4.71c0,2.48-1.31,3.5-3.06,3.5s-2.9-.95-2.9-3.45V18.93Z"/><path class="cls-1" d="M212.43,18.93V27h-1V18.93Z"/><path class="cls-1" d="M215.56,24.47,214.72,27h-1.08l2.75-8.08h1.26L220.41,27h-1.12l-.86-2.54Zm2.65-.82-.79-2.33c-.18-.53-.3-1-.42-1.48h0c-.12.48-.25,1-.41,1.46l-.79,2.34Z"/><path class="cls-1" d="M224.14,19a15,15,0,0,1,2.22-.17,4.62,4.62,0,0,1,3.27,1,3.72,3.72,0,0,1,1.14,2.9,4.27,4.27,0,0,1-1.16,3.14A5,5,0,0,1,226,27.08a16.68,16.68,0,0,1-1.89-.1Zm1,7.15a6.61,6.61,0,0,0,1.06.06,3.11,3.11,0,0,0,3.44-3.43c0-1.91-1.07-3.12-3.27-3.12a6,6,0,0,0-1.22.11Z"/><path class="cls-1" d="M236.32,23.22h-3.14v2.91h3.5V27h-4.54V18.93h4.37v.88h-3.32v2.55h3.14Z"/><path class="cls-1" d="M244.77,23.22h-3.14v2.91h3.5V27h-4.55V18.93h4.37v.88h-3.32v2.55h3.14Z"/><path class="cls-1" d="M246.34,25.74a3.7,3.7,0,0,0,1.87.53c1.07,0,1.69-.56,1.69-1.38s-.43-1.19-1.52-1.61c-1.32-.47-2.13-1.15-2.13-2.29a2.33,2.33,0,0,1,2.61-2.2,3.67,3.67,0,0,1,1.79.4l-.29.85a3.21,3.21,0,0,0-1.54-.38c-1.1,0-1.52.66-1.52,1.21,0,.76.49,1.13,1.61,1.56,1.37.53,2.06,1.19,2.06,2.37s-.92,2.33-2.83,2.33a4.18,4.18,0,0,1-2.06-.52Z"/><path class="cls-1" d="M253.94,19.81h-2.46v-.89h6v.89H255V27h-1.05Z"/><path class="cls-1" d="M259.41,18.93V27h-1V18.93Z"/><path class="cls-1" d="M261.23,18.93h1v7.21h3.45V27h-4.5Z"/><path class="cls-1" d="M273.34,22.88c0,2.78-1.69,4.26-3.75,4.26s-3.63-1.66-3.63-4.1,1.59-4.25,3.75-4.25S273.34,20.49,273.34,22.88Zm-6.27.13c0,1.73.94,3.27,2.58,3.27s2.59-1.52,2.59-3.36c0-1.61-.84-3.29-2.58-3.29S267.06,21.24,267.06,23Z"/><path class="cls-1" d="M175.33,17V29h-.8V17Z"/></svg>